<svg id="Capa_1" enable-background="new 0 0 510.953 510.953" height="512" viewBox="0 0 510.953 510.953" width="512" xmlns="http://www.w3.org/2000/svg"><g><circle cx="164.664" cy="293.141" r="7.5"/><circle cx="164.664" cy="258.932" r="7.5"/><circle cx="164.664" cy="224.724" r="7.5"/><circle cx="164.664" cy="190.515" r="7.5"/><circle cx="342.527" cy="293.141" r="7.5"/><circle cx="342.527" cy="258.932" r="7.5"/><circle cx="342.527" cy="224.724" r="7.5"/><circle cx="342.527" cy="190.515" r="7.5"/><circle cx="442.561" cy="308.483" r="7.5"/><circle cx="442.561" cy="274.274" r="7.5"/><circle cx="442.561" cy="240.066" r="7.5"/><circle cx="442.561" cy="205.857" r="7.5"/><circle cx="74.223" cy="308.483" r="7.5"/><circle cx="74.223" cy="274.274" r="7.5"/><circle cx="74.223" cy="240.066" r="7.5"/><circle cx="74.223" cy="205.857" r="7.5"/><path d="m474.433 401.505c.098-.425.166-.863.189-1.315l1.657-32.601c1.024-20.163 1.495-40.612 1.399-60.777-.02-4.143-3.374-7.507-7.536-7.464-4.142.02-7.483 3.394-7.464 7.536.095 19.889-.37 40.058-1.38 59.945l-.05.992c-14.785-31.06-31.903-49.947-42.307-59.51.058-16.876.502-33.925 1.352-50.742l4.101-81.188h32.822l4.101 81.189c.327 6.47.599 13.035.809 19.511.134 4.14 3.628 7.38 7.738 7.254 4.141-.134 7.388-3.599 7.254-7.739-.213-6.566-.488-13.222-.82-19.783l-9.002-164.734v-.001c-.271-4.555-2.183-8.64-5.122-11.728 4.984-5.15 8.061-12.158 8.061-19.875 0-15.773-12.831-28.604-28.604-28.604-15.772 0-28.604 12.831-28.604 28.604 0 7.296 2.75 13.959 7.262 19.017-3.427 3.166-5.678 7.599-5.974 12.586l-9.002 164.734c-.721 14.264-1.155 28.694-1.315 43.048-.907.22-1.785.59-2.578 1.153-2.827 2.008-11.562 8.678-22.281 21.366.479-26.271.069-52.693-1.25-78.822l-9.451-172.918c-.309-5.199-2.751-9.788-6.427-12.974 7.21-5.981 11.811-15.004 11.811-25.083-.002-17.966-14.619-32.582-32.585-32.582-17.965 0-32.581 14.616-32.581 32.582 0 10.007 4.538 18.97 11.66 24.952-3.762 3.19-6.266 7.834-6.579 13.105l-.824 13.868h-120.62l-.824-13.868c-.313-5.278-2.824-9.928-6.594-13.118 7.113-5.981 11.645-14.939 11.645-24.939 0-17.966-14.616-32.582-32.582-32.582-17.965 0-32.581 14.616-32.581 32.582 0 10.085 4.607 19.114 11.826 25.095-3.668 3.186-6.104 7.769-6.413 12.961l-9.451 172.918c-1.185 23.447-1.643 48.068-1.378 72.221-6.752-7.176-12.217-11.644-15.128-13.83-.139-15.03-.574-30.184-1.33-45.136l-9.001-164.733c-.28-4.71-2.312-8.918-5.422-12.04 4.809-5.12 7.764-12.001 7.764-19.563 0-15.773-12.831-28.604-28.604-28.604-15.772 0-28.604 12.831-28.604 28.604 0 7.444 2.86 14.231 7.537 19.325-3.244 3.143-5.366 7.45-5.653 12.277v.001l-7.939 143.698c-.209 4.137 2.976 7.66 7.112 7.869 4.171.231 7.66-2.976 7.868-7.112l3.038-60.152h32.822l4.101 81.188c.793 15.692 1.237 31.613 1.34 47.368-8.9 7.496-26.664 24.966-42.62 55.795-1.408-31.22-1.477-62.804-.168-93.986.174-4.139-3.04-7.634-7.179-7.808-4.129-.159-7.634 3.041-7.808 7.179-1.413 33.673-1.263 67.813.448 101.473l1.059 20.841c.044.857.237 1.67.541 2.424-10.479 29.025-18.22 66.051-18.751 112.512-.022 2.003.758 3.933 2.166 5.358 1.409 1.425 3.33 2.227 5.334 2.227h453.223c2.004 0 3.925-.802 5.334-2.227 1.408-1.425 2.188-3.355 2.165-5.358-.467-40.96-6.542-74.583-15.153-101.862zm-49.212-240.124 4.066-68.413c.114-1.927 1.716-3.437 3.647-3.437h15.738c1.931 0 3.533 1.51 3.648 3.438l4.066 68.413h-31.165zm16.409-114.51c7.501 0 13.604 6.102 13.604 13.604 0 7.501-6.103 13.604-13.604 13.604-7.502 0-13.604-6.103-13.604-13.604s6.102-13.604 13.604-13.604zm-89.282 316.746c-9.808-32-22.118-57.857-34.509-78.344.091-.444.147-.9.156-1.37.242-14.082.693-28.142 1.271-39.59l4.31-85.314h35.022l4.309 85.314c1.665 32.97 1.881 66.416.642 99.415-3.759 5.929-7.534 12.547-11.201 19.889zm-155.66-203.856h111.83l-1.925 38.119c-35.292-14.305-72.973-13.104-107.803 3.487zm132.023-88.234c.114-1.927 1.716-3.437 3.647-3.437h17.456c1.931 0 3.533 1.51 3.648 3.438l4.307 72.471h-33.366zm-19.379 73.234h-113.459l-.912-15.352h115.283zm-128.53-.762h-33.365l4.306-72.471c.115-1.928 1.718-3.438 3.648-3.438h17.456c1.932 0 3.533 1.51 3.648 3.438zm21.268 133.119c-.251-11.914-.644-23.562-1.149-33.562l-1.303-25.793c34.068-18.222 71.586-19.594 106.169-3.921l-1.501 29.713c-.31 6.123-.582 12.98-.808 20.18-19.877-27.027-37.398-40.346-41.737-43.428-2.602-1.847-6.084-1.847-8.686 0-5.003 3.553-27.529 20.724-50.985 56.811zm139.167-262.118c9.694 0 17.582 7.887 17.582 17.582s-7.888 17.582-17.582 17.582-17.581-7.887-17.581-17.582 7.887-17.582 17.581-17.582zm-29.215 84.506-.885 14.903h-117.067l-.885-14.903zm-148.084-84.506c9.694 0 17.582 7.887 17.582 17.582s-7.888 17.582-17.582 17.582-17.581-7.887-17.581-17.582 7.886-17.582 17.581-17.582zm-21.639 229.313 4.31-85.314h35.021l4.31 85.314c.85 16.839 1.382 38.429 1.434 57.999-9.641 18.451-18.838 40.386-26.392 66.193-6.369-13.51-13.164-24.733-19.686-33.897-.823-29.755-.478-60.962 1.003-90.295zm-68.079-197.442c7.501 0 13.604 6.102 13.604 13.604 0 7.501-6.103 13.604-13.604 13.604s-13.604-6.103-13.604-13.604 6.103-13.604 13.604-13.604zm-15.813 114.51 4.065-68.413c.115-1.928 1.718-3.438 3.648-3.438h15.739c1.931 0 3.532 1.51 3.647 3.438l4.065 68.413zm13.281 196.916c13.153-22.566 26.69-35.79 33.513-41.615 9.649 8.215 32.325 30.894 49.005 74.071.175.452.392.875.639 1.272-4.501 19.467-8.042 40.846-10.225 64.267-5.414-22.444-12.995-42.695-22.676-60.516-3.316-6.106-6.877-11.916-10.583-17.27-1.401-2.024-3.706-3.231-6.168-3.231-2.461 0-4.766 1.208-6.166 3.232-3.706 5.355-7.266 11.165-10.582 17.269-15.092 27.783-25.067 61.482-29.696 100.177h-22.23c1.578-54.021 13.397-100.301 35.169-137.656zm5.343 117.133h56.323c1.242 6.656 2.301 13.498 3.176 20.523h-62.674c.875-7.025 1.934-13.868 3.175-20.523zm3.168-15c5.115-21.413 12.277-40.654 21.426-57.494 1.16-2.136 2.351-4.23 3.568-6.276 1.217 2.045 2.407 4.14 3.567 6.276 9.148 16.839 16.311 36.081 21.426 57.494zm121.341-19.918h111.715c1.343 6.858 2.497 13.522 3.483 19.917h-118.681c.986-6.395 2.14-13.059 3.483-19.917zm3.189-15c9.202-40.063 25.126-84.768 52.669-121.554 27.542 36.787 43.466 81.491 52.668 121.554zm-8.761 49.918h122.54c.107 0 .211-.012.317-.016.922 7.396 1.622 14.288 2.152 20.539h-127.159c.53-6.247 1.229-13.134 2.15-20.523zm140.051 20.523c-4.121-50.241-14.332-95.759-30.376-135.297-14.459-35.63-31.06-59.697-42.439-73.613-1.425-1.742-3.556-2.752-5.806-2.752s-4.381 1.01-5.806 2.752c-11.381 13.915-27.981 37.982-42.44 73.613-16.043 39.538-26.255 85.055-30.376 135.297h-21.449c1.866-78.112 18.718-144.985 50.129-198.878 20.216-34.685 40.663-53.672 49.942-61.209 9.279 7.537 29.727 26.526 49.941 61.209 31.411 53.893 48.263 120.766 50.129 198.878zm41.584-20.524 56.311-.019c1.243 6.662 2.304 13.511 3.181 20.543h-62.67c.876-7.025 1.936-13.868 3.178-20.524zm3.177-15.001c5.117-21.415 12.271-40.663 21.413-57.493 1.159-2.135 2.351-4.229 3.568-6.275 1.217 2.045 2.408 4.14 3.568 6.275 9.14 16.825 16.292 36.068 21.409 57.476zm71.434 35.525c-4.634-38.704-14.618-72.408-29.704-100.177-3.316-6.104-6.876-11.914-10.582-17.269-1.4-2.024-3.705-3.232-6.167-3.232s-4.767 1.208-6.167 3.232c-3.71 5.361-7.27 11.171-10.583 17.269-8.143 14.991-14.788 31.725-19.921 50.026-2.457-21.672-6.083-41.52-10.542-59.651.085-.169.171-.338.244-.517 16.436-39.85 37.712-61.071 46.962-68.951 6.825 5.827 20.361 19.051 33.512 41.614 21.771 37.354 33.591 83.635 35.169 137.655h-22.221z"/></g></svg>