<?xml version="1.0"?>
<svg xmlns="http://www.w3.org/2000/svg" id="outline" viewBox="0 0 512 512" width="512" height="512"><path d="M40,202.6665V240H32a7.99948,7.99948,0,0,0-7.76074,9.94043L32,280.9834V455.0166l-7.76074,31.043A7.99948,7.99948,0,0,0,32,496H480a7.99948,7.99948,0,0,0,7.76074-9.94043L480,455.0166V280.9834l7.76074-31.043A7.99948,7.99948,0,0,0,480,240h-8V202.6665l22.40039-29.8667A8.00031,8.00031,0,0,0,488,160H440V147.31348l13.65723-13.65674A8.00038,8.00038,0,0,0,448,120H368v-8h16V96H308.94409L295.15527,68.42236A7.99979,7.99979,0,0,0,288,64H264V48h8a7.99979,7.99979,0,0,0,7.15527-4.42236L284.94434,32H296V16H280a7.99979,7.99979,0,0,0-7.15527,4.42236L267.05566,32H264V16H248V32h-3.05566l-5.78907-11.57764A7.99979,7.99979,0,0,0,232,16H216V32h11.05566l5.78907,11.57764A7.99979,7.99979,0,0,0,240,48h8V64H224a7.99979,7.99979,0,0,0-7.15527,4.42236L203.05591,96H128v16h16v8H64a8.00038,8.00038,0,0,0-5.65723,13.65674L72,147.31348V160H24a8.00031,8.00031,0,0,0-6.40039,12.7998ZM56,208H72v32H56Zm88,0v32H128V208Zm80,0v32H208V208Zm80,0v32H288V208Zm80,0v32H368V208Zm85.75391,48-4,16H430.24609l-4-16ZM390.24585,480,384,455.0166V280.9834L390.24585,256h19.5083L416,280.9834V455.0166L409.75415,480Zm-96,0L288,455.0166V280.9834L294.24585,256h19.5083L320,280.9834V455.0166L313.75415,480Zm-96,0L192,455.0166V280.9834L198.24585,256h19.5083L224,280.9834V455.0166L217.75415,480Zm-96,0L96,455.0166V280.9834L102.24585,256h19.5083L128,280.9834V455.0166L121.75415,480ZM85.75391,256l-4,16H46.24609l-4-16ZM48,288H80V448H48Zm133.75391-32-4,16H142.24609l-4-16ZM144,288h32V448H144Zm129.75391-16H238.24609l-4-16h43.50782ZM240,288h32V448H240Zm133.75391-32-4,16H334.24609l-4-16ZM336,288h32V448H336Zm96,0h32V448H432Zm-8-48H400V208h24Zm-72,0H320V208h32Zm-80,0H240V208h32Zm-80,0H160V208h32Zm-80,0H88V208h24ZM42.24609,480l4-16H81.75391l4,16Zm96,0,4-16h35.50782l4,16Zm96,0,4-16h35.50782l4,16Zm96,0,4-16h35.50782l4,16Zm96,0,4-16h35.50782l4,16ZM440,240V208h16v32ZM428.68652,136l-2.34375,2.34326A8.00035,8.00035,0,0,0,424,144v16H368V136ZM283.05566,80l8,16H264V80Zm-54.11132,0H248V96H220.94434ZM352,112v48H160V112ZM85.65723,138.34326,83.31348,136H144v24H88V144A8.00035,8.00035,0,0,0,85.65723,138.34326ZM472,176l-12.00024,16H52.00024L40,176Z"/><rect x="184" y="128" width="32" height="16"/><rect x="296" y="128" width="32" height="16"/><rect x="232" y="128" width="48" height="16"/></svg>
