<?xml version="1.0" encoding="iso-8859-1"?>
<!-- Generator: Adobe Illustrator 16.0.0, SVG Export Plug-In . SVG Version: 6.00 Build 0)  -->
<!DOCTYPE svg PUBLIC "-//W3C//DTD SVG 1.1//EN" "http://www.w3.org/Graphics/SVG/1.1/DTD/svg11.dtd">
<svg version="1.1" id="Capa_1" xmlns="http://www.w3.org/2000/svg" xmlns:xlink="http://www.w3.org/1999/xlink" x="0px" y="0px"
	 width="92.406px" height="92.406px" viewBox="0 0 92.406 92.406" style="enable-background:new 0 0 92.406 92.406;"
	 xml:space="preserve">
<g>
	<g>
		<path d="M46.203,0C20.685,0,0,20.685,0,46.203c0,25.518,20.685,46.203,46.203,46.203c25.518,0,46.203-20.686,46.203-46.203
			C92.406,20.685,71.721,0,46.203,0z M46.203,81.906c-19.718,0-35.701-15.986-35.701-35.703c0-19.718,15.983-35.703,35.701-35.703
			s35.704,15.985,35.704,35.703C81.906,65.92,65.92,81.906,46.203,81.906z"/>
		<path d="M46.203,22.313c-13.194,0-23.889,10.695-23.889,23.89c0,13.193,10.694,23.891,23.889,23.891
			c13.193,0,23.891-10.697,23.891-23.891C70.094,33.009,59.396,22.313,46.203,22.313z M45.476,60.485
			c-3.114,0-6.854-0.638-9.76-1.904l1.244-5.817c2.337,0.688,5.764,1.32,8.619,1.32c2.854,0,3.426-0.581,3.426-2.168
			c0-1.745-0.311-2.169-5.191-2.962c-7.06-1.164-7.787-3.968-7.787-8.992c0-6.03,3.581-8.041,10.696-8.041
			c2.597,0,6.646,0.425,9.239,1.165l-0.881,6.188c-3.013-0.633-5.866-0.951-8.307-0.951c-2.492,0-3.063,0.369-3.063,1.904
			c0,1.851,0.259,2.116,4.881,2.962c7.58,1.373,8.098,3.174,8.098,8.357C56.689,57.471,54.615,60.485,45.476,60.485z"/>
	</g>
</g>
<g>
</g>
<g>
</g>
<g>
</g>
<g>
</g>
<g>
</g>
<g>
</g>
<g>
</g>
<g>
</g>
<g>
</g>
<g>
</g>
<g>
</g>
<g>
</g>
<g>
</g>
<g>
</g>
<g>
</g>
</svg>
