<svg width="381" height="381" viewBox="0 0 381 381" fill="none" xmlns="http://www.w3.org/2000/svg">
<rect width="381" height="381" fill="white"/>
<rect x="0.5" y="0.5" width="380" height="380" fill="white" stroke="black"/>
<path d="M25.8362 233L66.2662 141.35H75.3662L115.796 233H104.746L94.6062 209.6H46.8962L36.8862 233H25.8362ZM70.6862 153.83L50.7962 200.63H90.8362L70.9462 153.83H70.6862ZM127.953 233V169.82H138.223V181.13C141.603 173.503 148.537 169.3 159.023 168.52L162.793 168.13L163.573 177.23L156.943 178.01C150.963 178.53 146.413 180.437 143.293 183.73C140.173 186.937 138.613 191.357 138.613 196.99V233H127.953ZM203.323 234.17C195.869 234.17 190.279 232.22 186.553 228.32C182.826 224.333 180.963 218.613 180.963 211.16V178.01H168.613V169.82H180.963V150.45H191.493V169.82H211.513V178.01H191.493V210.12C191.493 215.06 192.533 218.83 194.613 221.43C196.693 223.943 200.073 225.2 204.753 225.2C206.139 225.2 207.526 225.027 208.913 224.68C210.299 224.333 211.556 223.987 212.683 223.64L214.503 231.7C213.376 232.307 211.729 232.87 209.563 233.39C207.396 233.91 205.316 234.17 203.323 234.17ZM224.852 233V141.35H282.702V150.32H235.252V182.04H279.972V191.01H235.252V224.03H282.702V233H224.852ZM291.153 233L317.413 200.37L292.713 169.82H305.193L323.523 193.09L341.983 169.82H354.333L329.633 200.37L355.893 233H343.413L323.393 207.91L303.633 233H291.153Z" fill="black"/>
</svg>
